P3
10 6
255
0
0
255
0
0
255
0
255
255
0
255
255
128
128
128
128
128
128
0
0
255
0
0
255
0
255
255
0
255
255
0
0
255
0
0
255
0
255
255
0
255
255
128
128
128
128
128
128
0
0
255
0
0
255
0
255
255
0
255
255
0
255
255
0
255
255
128
128
128
128
128
128
0
0
255
0
0
255
0
255
255
0
255
255
128
128
128
128
128
128
0
255
255
0
255
255
128
128
128
128
128
128
0
0
255
0
0
255
0
255
255
0
255
255
128
128
128
128
128
128
128
128
128
128
128
128
0
0
255
0
0
255
0
255
255
0
255
255
128
128
128
128
128
128
0
0
255
0
0
255
128
128
128
128
128
128
0
0
255
0
0
255
0
255
255
0
255
255
128
128
128
128
128
128
0
0
255
0
0
255
