P3
10 6
255
0
0
140
0
46
186
0
140
186
24
164
164
72
118
118
72
72
118
24
24
164
0
46
186
0
140
186
0
140
140
0
46
186
8
100
240
24
179
225
48
188
203
80
126
172
72
87
179
24
70
225
8
100
240
24
179
225
24
164
164
0
140
186
24
179
225
72
164
179
80
126
172
48
63
203
24
70
225
8
148
240
24
179
225
72
164
179
72
118
118
24
164
164
48
188
203
80
126
172
72
87
179
24
70
225
8
100
240
24
179
225
48
188
203
80
126
172
72
72
118
72
118
118
80
126
172
48
63
203
24
70
225
8
148
240
24
179
225
72
164
179
80
126
172
48
63
203
24
24
164
72
72
72
72
72
118
24
24
164
0
46
186
0
140
186
24
164
164
72
118
118
72
72
118
24
24
164
0
0
140
